<svg width="158" height="52" viewBox="0 0 158 52" fill="none" xmlns="http://www.w3.org/2000/svg">
<path d="M15.156 39.36C12.588 39.36 10.272 38.808 8.208 37.704C6.144 36.576 4.524 35.028 3.348 33.06C2.172 31.068 1.584 28.848 1.584 26.4C1.584 23.952 2.172 21.744 3.348 19.776C4.524 17.784 6.144 16.236 8.208 15.132C10.272 14.004 12.588 13.44 15.156 13.44C17.724 13.44 20.04 14.004 22.104 15.132C24.168 16.236 25.788 17.772 26.964 19.74C28.14 21.708 28.728 23.928 28.728 26.4C28.728 28.872 28.14 31.092 26.964 33.06C25.788 35.028 24.168 36.576 22.104 37.704C20.04 38.808 17.724 39.36 15.156 39.36ZM15.156 35.256C16.836 35.256 18.348 34.884 19.692 34.14C21.036 33.372 22.092 32.316 22.86 30.972C23.628 29.604 24.012 28.08 24.012 26.4C24.012 24.72 23.628 23.208 22.86 21.864C22.092 20.496 21.036 19.44 19.692 18.696C18.348 17.928 16.836 17.544 15.156 17.544C13.476 17.544 11.964 17.928 10.62 18.696C9.276 19.44 8.22 20.496 7.452 21.864C6.684 23.208 6.3 24.72 6.3 26.4C6.3 28.08 6.684 29.604 7.452 30.972C8.22 32.316 9.276 33.372 10.62 34.14C11.964 34.884 13.476 35.256 15.156 35.256ZM44.1647 19.56C46.5887 19.56 48.5327 20.268 49.9967 21.684C51.4607 23.1 52.1927 25.2 52.1927 27.984V39H47.6927V28.56C47.6927 26.88 47.2967 25.62 46.5047 24.78C45.7127 23.916 44.5847 23.484 43.1207 23.484C41.4647 23.484 40.1567 23.988 39.1967 24.996C38.2367 25.98 37.7567 27.408 37.7567 29.28V39H33.2567V19.776H37.5407V22.26C38.2847 21.372 39.2207 20.7 40.3487 20.244C41.4767 19.788 42.7487 19.56 44.1647 19.56Z" fill="#359EFF"/>
<path d="M55.1652 18.48V13.8H73.9212V18.48H67.1172V39H61.9332V18.48H55.1652ZM87.1414 28.92C87.1414 27.84 86.9254 27.012 86.4934 26.436C86.0854 25.836 85.3894 25.536 84.4054 25.536C83.4454 25.536 82.6534 25.836 82.0294 26.436C81.4054 27.036 81.0934 27.864 81.0934 28.92V39H76.4134V10.92H81.0934V24.852C81.5734 23.94 82.2334 23.22 83.0734 22.692C83.9374 22.164 84.9574 21.9 86.1334 21.9C88.0774 21.9 89.5054 22.452 90.4174 23.556C91.3534 24.636 91.8214 26.208 91.8214 28.272V39H87.1414V28.92ZM104.23 39.36C102.406 39.36 100.822 39.012 99.4781 38.316C98.1341 37.596 97.0901 36.588 96.3461 35.292C95.6261 33.996 95.2661 32.472 95.2661 30.72C95.2661 28.08 96.0701 25.98 97.6781 24.42C99.2861 22.86 101.47 22.08 104.23 22.08C106.966 22.08 109.09 22.824 110.602 24.312C112.114 25.776 112.87 27.84 112.87 30.504C112.87 30.744 112.858 30.972 112.834 31.188C112.81 31.404 112.798 31.584 112.798 31.728H100.018C100.162 33.024 100.594 34.032 101.314 34.752C102.058 35.448 103.03 35.796 104.23 35.796C106.27 35.796 107.758 34.992 108.694 33.384L112.798 34.68C111.07 37.8 108.214 39.36 104.23 39.36ZM104.158 25.392C101.902 25.392 100.558 26.556 100.126 28.884H107.83C107.734 27.828 107.35 26.988 106.678 26.364C106.03 25.716 105.19 25.392 104.158 25.392ZM117.863 27.12L116.135 23.952C116.999 23.496 118.055 23.064 119.303 22.656C120.551 22.224 121.943 22.008 123.479 22.008C124.895 22.008 126.155 22.212 127.259 22.62C128.363 23.028 129.227 23.628 129.851 24.42C130.499 25.188 130.823 26.136 130.823 27.264V39H126.287V36.732C125.783 37.596 125.015 38.256 123.983 38.712C122.975 39.144 121.919 39.36 120.815 39.36C119.759 39.36 118.787 39.156 117.899 38.748C117.011 38.34 116.303 37.752 115.775 36.984C115.247 36.192 114.983 35.232 114.983 34.104C114.983 32.52 115.547 31.26 116.675 30.324C117.803 29.364 119.399 28.884 121.463 28.884C122.519 28.884 123.443 28.992 124.235 29.208C125.051 29.424 125.735 29.676 126.287 29.964V28.272C126.287 27.36 125.987 26.7 125.387 26.292C124.811 25.884 124.007 25.68 122.975 25.68C121.823 25.68 120.767 25.86 119.807 26.22C118.847 26.58 118.199 26.88 117.863 27.12ZM119.699 33.816C119.699 34.56 119.951 35.136 120.455 35.544C120.959 35.928 121.607 36.12 122.399 36.12C123.455 36.12 124.367 35.808 125.135 35.184C125.903 34.536 126.287 33.6 126.287 32.376C125.207 31.896 124.031 31.656 122.759 31.656C121.679 31.656 120.899 31.848 120.419 32.232C119.939 32.592 119.699 33.12 119.699 33.816ZM155.385 27.336C155.073 27.048 154.749 26.832 154.413 26.688C154.101 26.52 153.705 26.436 153.225 26.436C152.337 26.436 151.665 26.772 151.209 27.444C150.753 28.116 150.525 29.052 150.525 30.252V39H145.917V22.44H150.525V24.492C151.029 23.748 151.629 23.16 152.325 22.728C153.021 22.296 153.741 22.08 154.485 22.08C155.085 22.08 155.661 22.188 156.213 22.404C156.765 22.62 157.197 22.944 157.509 23.376L155.385 27.336Z" fill="white"/>
<path fill-rule="evenodd" clip-rule="evenodd" d="M138.5 20C139.881 20 141 18.8807 141 17.5C141 16.1193 139.881 15 138.5 15C137.119 15 136 16.1193 136 17.5C136 18.8807 137.119 20 138.5 20ZM133 22H136H141H144V26H141V39H136V26H133V22Z" fill="white"/>
</svg>
