<svg width="47" height="47" viewBox="0 0 47 47" fill="none" xmlns="http://www.w3.org/2000/svg">
<circle cx="23.5" cy="23.5" r="22.5" fill="#616B89" stroke="white" stroke-width="2"/>
<path d="M23.5 17.7729C24.7997 17.7729 26.0702 17.4225 27.1509 16.7659C28.2316 16.1093 29.0738 15.1761 29.5712 14.0843C30.0686 12.9924 30.1987 11.791 29.9452 10.6319C29.6916 9.47277 29.0657 8.40806 28.1467 7.5724C27.2277 6.73674 26.0568 6.16764 24.782 5.93708C23.5073 5.70652 22.186 5.82485 20.9852 6.27711C19.7845 6.72937 18.7581 7.49524 18.0361 8.47788C17.314 9.46052 16.9286 10.6158 16.9286 11.7976C16.9286 13.3823 17.6209 14.9022 18.8533 16.0228C20.0857 17.1434 21.7571 17.7729 23.5 17.7729ZM23.5 8.80993C24.1499 8.80993 24.7851 8.98515 25.3254 9.31344C25.8658 9.64173 26.2869 10.1083 26.5356 10.6543C26.7843 11.2002 26.8494 11.8009 26.7226 12.3805C26.5958 12.96 26.2829 13.4924 25.8234 13.9102C25.3638 14.328 24.7784 14.6126 24.141 14.7278C23.5036 14.8431 22.843 14.784 22.2426 14.5578C21.6422 14.3317 21.1291 13.9488 20.768 13.4574C20.407 12.9661 20.2143 12.3885 20.2143 11.7976C20.2143 11.0052 20.5605 10.2453 21.1767 9.685C21.7928 9.1247 22.6286 8.80993 23.5 8.80993ZM23.5 20.7606C20.45 20.7606 17.5249 21.8623 15.3683 23.8233C13.2116 25.7843 12 28.4441 12 31.2174C12 31.6136 12.1731 31.9936 12.4812 32.2737C12.7893 32.5538 13.2071 32.7112 13.6429 32.7112C14.0786 32.7112 14.4964 32.5538 14.8045 32.2737C15.1126 31.9936 15.2857 31.6136 15.2857 31.2174C15.2857 29.2365 16.1511 27.3366 17.6916 25.9359C19.2321 24.5352 21.3214 23.7482 23.5 23.7482C25.6786 23.7482 27.7679 24.5352 29.3084 25.9359C30.8489 27.3366 31.7143 29.2365 31.7143 31.2174C31.7143 31.6136 31.8874 31.9936 32.1955 32.2737C32.5036 32.5538 32.9214 32.7112 33.3571 32.7112C33.7929 32.7112 34.2107 32.5538 34.5188 32.2737C34.8269 31.9936 35 31.6136 35 31.2174C35 28.4441 33.7884 25.7843 31.6317 23.8233C29.4751 21.8623 26.55 20.7606 23.5 20.7606Z" fill="white"/>
</svg>
